<svg width="512" height="512" version="1.1" xmlns="http://www.w3.org/2000/svg" desc="Created with imagetracer.js version 1.2.6" ><path fill="rgb(186,186,186)" stroke="rgb(186,186,186)" stroke-width="1" opacity="1" d="M 117.5 202 L 162.5 202 Q 163.5 202 163 206.5 Q 162.3 208.8 158.5 208 L 158.5 207 Q 164.2 208.6 162 203 L 117.5 203 L 117.5 202 Z " /><path fill="rgb(186,186,186)" stroke="rgb(186,186,186)" stroke-width="1" opacity="1" d="M 190.5 202 L 237 202.5 L 190.5 203 L 190.5 202 Z " /><path fill="rgb(186,186,186)" stroke="rgb(186,186,186)" stroke-width="1" opacity="1" d="M 244.5 202 L 287 202.5 L 244.5 203 L 244.5 202 Z " /><path fill="rgb(186,186,186)" stroke="rgb(186,186,186)" stroke-width="1" opacity="1" d="M 304.5 202 L 347 202.5 L 304.5 203 L 304.5 202 Z " /><path fill="rgb(186,186,186)" stroke="rgb(186,186,186)" stroke-width="1" opacity="1" d="M 365.5 202 L 404.5 202 L 405 202.5 L 405 208 L 401 207.5 L 404 207 L 403.5 203 L 365.5 203 L 365.5 202 Z " /><path fill="rgb(186,186,186)" stroke="rgb(186,186,186)" stroke-width="1" opacity="1" d="M 117.5 207 L 121 207.5 L 117.5 208 L 117.5 207 Z " /><path fill="rgb(186,186,186)" stroke="rgb(186,186,186)" stroke-width="1" opacity="1" d="M 190.5 207 L 193 207.5 L 190.5 208 L 190.5 207 Z " /><path fill="rgb(186,186,186)" stroke="rgb(186,186,186)" stroke-width="1" opacity="1" d="M 233.5 207 L 236 207.5 L 233.5 208 L 233.5 207 Z " /><path fill="rgb(186,186,186)" stroke="rgb(186,186,186)" stroke-width="1" opacity="1" d="M 281.5 207 L 287 207.5 L 281.5 208 L 281.5 207 Z " /><path fill="rgb(186,186,186)" stroke="rgb(186,186,186)" stroke-width="1" opacity="1" d="M 305.5 207 L 309 207.5 L 305.5 208 L 305.5 207 Z " /><path fill="rgb(186,186,186)" stroke="rgb(186,186,186)" stroke-width="1" opacity="1" d="M 340.5 207 L 347 207.5 L 340.5 208 L 340.5 207 Z " /><path fill="rgb(186,186,186)" stroke="rgb(186,186,186)" stroke-width="1" opacity="1" d="M 365.5 207 L 371 207.5 L 365.5 208 L 365.5 207 Z " /><path fill="rgb(186,186,186)" stroke="rgb(186,186,186)" stroke-width="1" opacity="1" d="M 274.5 209 L 273 211.5 L 272.5 213 L 272 211.5 L 274.5 209 Z " /><path fill="rgb(186,186,186)" stroke="rgb(186,186,186)" stroke-width="1" opacity="1" d="M 333.5 209 L 332.5 211 L 333.5 209 Z " /><path fill="rgb(186,186,186)" stroke="rgb(186,186,186)" stroke-width="1" opacity="1" d="M 130.5 210 L 131.5 212 L 130.5 210 Z " /><path fill="rgb(186,186,186)" stroke="rgb(186,186,186)" stroke-width="1" opacity="1" d="M 203.5 210 L 205.5 213 L 203.5 210 Z " /><path fill="rgb(186,186,186)" stroke="rgb(186,186,186)" stroke-width="1" opacity="1" d="M 222.5 210 L 221.5 212 L 222.5 210 Z " /><path fill="rgb(186,186,186)" stroke="rgb(186,186,186)" stroke-width="1" opacity="1" d="M 254.5 210 L 256.5 213 L 254.5 210 Z " /><path fill="rgb(186,186,186)" stroke="rgb(186,186,186)" stroke-width="1" opacity="1" d="M 393.5 210 L 391.5 213 L 393.5 210 Z " /><path fill="rgb(186,186,186)" stroke="rgb(186,186,186)" stroke-width="1" opacity="1" d="M 380.5 212 L 381 216.5 L 380 216.5 L 380.5 212 Z " /><path fill="rgb(186,186,186)" stroke="rgb(186,186,186)" stroke-width="1" opacity="1" d="M 331.5 213 L 332 215.5 L 331 215.5 L 331.5 213 Z " /><path fill="rgb(186,186,186)" stroke="rgb(186,186,186)" stroke-width="1" opacity="1" d="M 133.5 215 L 134 217.5 L 133 217.5 L 133.5 215 Z " /><path fill="rgb(186,186,186)" stroke="rgb(186,186,186)" stroke-width="1" opacity="1" d="M 219.5 216 L 220 305.5 L 219 305.5 L 219.5 216 Z " /><path fill="rgb(186,186,186)" stroke="rgb(186,186,186)" stroke-width="1" opacity="1" d="M 207.5 217 L 208 254.5 L 206.5 256 L 146.5 256 L 145 254.5 L 145 218.5 L 146 218.5 L 146 255 L 207 255 L 207.5 217 Z " /><path fill="rgb(186,186,186)" stroke="rgb(186,186,186)" stroke-width="1" opacity="1" d="M 145 262 L 208 262 L 208 305.5 L 207 305.5 L 207 263 L 146 263 L 145.5 304 L 145 262 Z " /><path fill="rgb(186,186,186)" stroke="rgb(186,186,186)" stroke-width="1" opacity="1" d="M 356.5 297 L 357 299 L 355 298.5 L 356.5 297 Z " /><path fill="rgb(186,186,186)" stroke="rgb(186,186,186)" stroke-width="1" opacity="1" d="M 133.5 304 L 134 306.5 L 133 306.5 L 133.5 304 Z " /><path fill="rgb(186,186,186)" stroke="rgb(186,186,186)" stroke-width="1" opacity="1" d="M 131.5 310 L 130.5 312 L 131.5 310 Z " /><path fill="rgb(186,186,186)" stroke="rgb(186,186,186)" stroke-width="1" opacity="1" d="M 147.5 310 L 148.5 312 L 147.5 310 Z " /><path fill="rgb(186,186,186)" stroke="rgb(186,186,186)" stroke-width="1" opacity="1" d="M 205.5 310 L 204.5 312 L 205.5 310 Z " /><path fill="rgb(186,186,186)" stroke="rgb(186,186,186)" stroke-width="1" opacity="1" d="M 221.5 310 L 222.5 312 L 221.5 310 Z " /><path fill="rgb(186,186,186)" stroke="rgb(186,186,186)" stroke-width="1" opacity="1" d="M 117.5 314 L 121 314.5 L 117.5 315 L 117.5 314 Z " /><path fill="rgb(186,186,186)" stroke="rgb(186,186,186)" stroke-width="1" opacity="1" d="M 159.5 314 L 163 315.5 Q 163.8 319.3 161.5 320 L 117 319.5 L 162 319 Q 164.1 313.8 159.5 315 L 159.5 314 Z " /><path fill="rgb(186,186,186)" stroke="rgb(186,186,186)" stroke-width="1" opacity="1" d="M 191.5 314 L 195 314.5 L 191.5 315 L 191.5 314 Z " /><path fill="rgb(186,186,186)" stroke="rgb(186,186,186)" stroke-width="1" opacity="1" d="M 233.5 314 L 237 314.5 L 233.5 315 L 233.5 314 Z " /><path fill="rgb(186,186,186)" stroke="rgb(186,186,186)" stroke-width="1" opacity="1" d="M 191.5 319 L 237 319.5 L 191.5 320 L 191.5 319 Z " /><path fill="rgb(255,255,255)" stroke="rgb(255,255,255)" stroke-width="1" opacity="1" d="M 0 0 L 512 0 L 512 512 L 0 512 L 0 0 Z M 117 202 L 117 208 Q 125 207 130 210 L 133 214 L 134 219 L 134 304 L 133 309 L 129 313 L 117 314 L 117 320 L 118 320 L 162 320 Q 164 319 163 316 L 162 314 Q 154 315 150 312 L 146 308 L 146 263 L 207 263 L 207 308 L 206 310 L 203 313 L 199 314 L 191 314 L 191 320 L 237 320 L 237 320 L 237 314 Q 228 315 224 312 L 220 308 L 220 215 L 221 213 L 226 209 L 236 208 Q 238 207 237 202 L 191 202 L 190 203 L 190 208 Q 198 207 203 210 L 207 216 L 207 255 L 146 255 L 146 216 L 147 213 L 152 209 L 162 208 L 163 207 Q 163 202 163 202 L 117 202 Z M 244 202 L 244 208 L 253 209 L 259 217 L 291 321 Q 293 323 298 322 L 326 237 L 348 311 L 350 321 Q 352 323 357 322 L 385 229 L 391 214 L 399 208 L 405 208 L 405 202 L 366 202 L 365 203 L 365 208 Q 375 206 380 212 L 380 220 Q 368 254 359 291 L 356 298 L 332 219 L 332 212 L 337 208 L 347 208 L 347 202 L 305 202 Q 304 202 304 207 L 306 208 L 315 209 L 318 213 L 322 223 L 322 226 L 298 300 L 272 217 L 273 212 L 278 208 L 287 208 L 287 203 L 287 202 L 244 202 Z " /><path fill="rgb(58,58,58)" stroke="rgb(58,58,58)" stroke-width="1" opacity="1" d="M 190.5 203 L 191 206.5 L 190 206.5 L 190.5 203 Z " /><path fill="rgb(58,58,58)" stroke="rgb(58,58,58)" stroke-width="1" opacity="1" d="M 236.5 203 L 237 206.5 L 236 206.5 L 236.5 203 Z " /><path fill="rgb(58,58,58)" stroke="rgb(58,58,58)" stroke-width="1" opacity="1" d="M 244.5 203 L 245 206.5 L 244 206.5 L 244.5 203 Z " /><path fill="rgb(58,58,58)" stroke="rgb(58,58,58)" stroke-width="1" opacity="1" d="M 304.5 203 L 305 206.5 L 304 206.5 L 304.5 203 Z " /><path fill="rgb(58,58,58)" stroke="rgb(58,58,58)" stroke-width="1" opacity="1" d="M 346.5 203 L 347 206.5 L 346 206.5 L 346.5 203 Z " /><path fill="rgb(58,58,58)" stroke="rgb(58,58,58)" stroke-width="1" opacity="1" d="M 365.5 203 L 366 206.5 L 365 206.5 L 365.5 203 Z " /><path fill="rgb(58,58,58)" stroke="rgb(58,58,58)" stroke-width="1" opacity="1" d="M 193.5 207 L 196 207.5 L 193.5 208 L 193.5 207 Z " /><path fill="rgb(58,58,58)" stroke="rgb(58,58,58)" stroke-width="1" opacity="1" d="M 230.5 207 L 233 207.5 L 230.5 208 L 230.5 207 Z " /><path fill="rgb(58,58,58)" stroke="rgb(58,58,58)" stroke-width="1" opacity="1" d="M 246.5 207 L 249 207.5 L 246.5 208 L 246.5 207 Z " /><path fill="rgb(58,58,58)" stroke="rgb(58,58,58)" stroke-width="1" opacity="1" d="M 278.5 207 L 281 207.5 L 278.5 208 L 278.5 207 Z " /><path fill="rgb(58,58,58)" stroke="rgb(58,58,58)" stroke-width="1" opacity="1" d="M 337.5 207 L 340 207.5 L 337.5 208 L 337.5 207 Z " /><path fill="rgb(58,58,58)" stroke="rgb(58,58,58)" stroke-width="1" opacity="1" d="M 315.5 209 L 318.5 213 L 315.5 209 Z " /><path fill="rgb(58,58,58)" stroke="rgb(58,58,58)" stroke-width="1" opacity="1" d="M 378.5 209 L 379.5 211 L 378.5 209 Z " /><path fill="rgb(58,58,58)" stroke="rgb(58,58,58)" stroke-width="1" opacity="1" d="M 145.5 215 L 146 217.5 L 145 217.5 L 145.5 215 Z " /><path fill="rgb(58,58,58)" stroke="rgb(58,58,58)" stroke-width="1" opacity="1" d="M 296.5 299 L 297.5 301 L 296.5 299 Z " /><path fill="rgb(58,58,58)" stroke="rgb(58,58,58)" stroke-width="1" opacity="1" d="M 145.5 304 L 146 306.5 L 145 306.5 L 145.5 304 Z " /><path fill="rgb(58,58,58)" stroke="rgb(58,58,58)" stroke-width="1" opacity="1" d="M 121.5 314 L 124 314.5 L 121.5 315 L 121.5 314 Z " /><path fill="rgb(58,58,58)" stroke="rgb(58,58,58)" stroke-width="1" opacity="1" d="M 156.5 314 L 159 314.5 L 156.5 315 L 156.5 314 Z " /><path fill="rgb(58,58,58)" stroke="rgb(58,58,58)" stroke-width="1" opacity="1" d="M 195.5 314 L 198 314.5 L 195.5 315 L 195.5 314 Z " /><path fill="rgb(58,58,58)" stroke="rgb(58,58,58)" stroke-width="1" opacity="1" d="M 230.5 314 L 233 314.5 L 230.5 315 L 230.5 314 Z " /><path fill="rgb(58,58,58)" stroke="rgb(58,58,58)" stroke-width="1" opacity="1" d="M 236.5 315 L 237 318.5 L 236 318.5 L 236.5 315 Z " /><path fill="rgb(0,0,0)" stroke="rgb(0,0,0)" stroke-width="1" opacity="1" d="M 117 203 L 161.5 203 L 162 207 Q 152 206.3 147 211.5 L 145 215.5 L 145 256 L 208 256 L 208 215.5 L 206 211 Q 200.5 207 191 207 L 191.5 203 L 236 203 Q 238.3 209.4 230.5 207 L 223.5 209 L 220 212.5 L 219 215.5 L 219 306.5 L 223.5 313 L 236 315 L 235.5 319 L 191 319 L 191 315 L 197.5 315 Q 204.1 314.1 207 309.5 L 208 306.5 L 208 262 L 145 262 L 145 306.5 L 149.5 313 L 162 315 L 161.5 319 L 117 319 L 117 315 L 123.5 315 Q 130.1 314.1 133 309.5 L 134 307.5 L 134 214.5 L 129.5 209 L 117 207 L 117 203 Z " /><path fill="rgb(0,0,0)" stroke="rgb(0,0,0)" stroke-width="1" opacity="1" d="M 245 203 L 286.5 203 L 287 207 Q 277.8 205.9 273 209 Q 270.9 212.3 272 220.5 L 292 283.5 L 295 296.5 L 297.5 301 L 323 223.5 L 319 212.5 L 315.5 209 Q 311.6 206.1 305 207 L 305.5 203 L 346 203 L 346 207 L 337.5 207 L 331 211.5 L 332 221.5 L 335 228.5 L 355 300 Q 358 301.3 357 297.5 L 381 218.5 L 381 212.5 L 378.5 209 Q 373.6 206.1 366 207 L 366.5 203 L 404 203 Q 406.3 209 399.5 207 Q 393 208.5 390 213.5 L 387 219.5 L 362 304.5 L 355.5 322 Q 351.8 322.8 351 320.5 L 329 243.5 L 325.5 236 L 298 320.5 L 296.5 322 Q 292.8 322.8 292 320.5 L 261 219.5 Q 258.8 212.8 253.5 209 L 245 207 L 245 203 Z " /></svg>